<svg xmlns="http://www.w3.org/2000/svg" viewBox="0 0 150 150"><defs><style>.cls-1{fill:#90b8f8;}.cls-2{fill:#26282b;}.cls-3{fill:none;stroke:#26282b;stroke-linecap:round;stroke-linejoin:round;}</style></defs><g id="Layer_2" data-name="Layer 2"><g id="Layer_1-2" data-name="Layer 1"><rect class="cls-1" width="150" height="150"/><path class="cls-2" d="M69.34,88.75a2.17,2.17,0,0,1-3.07-.06l-.76-.78a2.17,2.17,0,0,1,.06-3.07L71,79.62l-5.22-5.39a2.18,2.18,0,0,1,.06-3.08l.78-.75a2.16,2.16,0,0,1,3.07,0l5.22,5.4,3.78,3.91,5.61,5.82a2.17,2.17,0,0,1,0,3.07l-.78.76a2.18,2.18,0,0,1-3.08-.06l-5.62-5.81Z"/><path class="cls-2" d="M83.84,84.82a2.17,2.17,0,0,1,0,3.07l-.77.77a2.17,2.17,0,0,1-3.07,0l-5.31-5.31-5.31,5.3a2.17,2.17,0,0,1-3.07,0l-.77-.77a2.18,2.18,0,0,1,0-3.08l5.31-5.3,3.85-3.84,5.72-5.72a2.18,2.18,0,0,1,3.08,0l.77.77a2.17,2.17,0,0,1,0,3.07L78.54,79.5Z"/><path class="cls-3" d="M25,90c0,21.94,22.57,40,50,40s50-18.06,50-40"/><circle class="cls-2" cx="45" cy="50" r="20"/><circle class="cls-2" cx="105" cy="50" r="20"/><path class="cls-3" d="M85,50a10,10,0,0,0-20,0"/></g></g></svg>