<svg width="28" height="28" viewBox="0 0 28 28" fill="none" xmlns="http://www.w3.org/2000/svg">
<path d="M5.83333 3.50001L5.83333 24.5C5.834 24.7126 5.89264 24.921 6.00294 25.1028C6.11324 25.2846 6.27103 25.4328 6.45931 25.5316C6.6476 25.6303 6.85925 25.6759 7.0715 25.6633C7.28374 25.6507 7.48853 25.5805 7.66383 25.4602L22.8305 14.9602C23.4593 14.525 23.4593 13.4773 22.8305 13.041L7.66383 2.54101C7.4889 2.41947 7.284 2.3482 7.07141 2.33493C6.85881 2.32167 6.64664 2.36692 6.45796 2.46577C6.26927 2.56463 6.11129 2.7133 6.00117 2.89563C5.89104 3.07797 5.833 3.287 5.83333 3.50001Z" fill="white"/>
</svg>
