<svg xmlns="http://www.w3.org/2000/svg" viewBox="0 0 15 12.69"><defs><style>.cls-1{fill:#ededed;}</style></defs><g id="Layer_2" data-name="Layer 2"><g id="Layer_1-2" data-name="Layer 1"><path class="cls-1" d="M13.85,0H1.15A1.13,1.13,0,0,0,.34.34,1.13,1.13,0,0,0,0,1.15V11.54a1.13,1.13,0,0,0,.34.81,1.13,1.13,0,0,0,.81.34h12.7A1.16,1.16,0,0,0,15,11.54V1.15a1.13,1.13,0,0,0-.34-.81A1.13,1.13,0,0,0,13.85,0ZM13.1,3.29,6.18,10.22a.76.76,0,0,1-.19.12.51.51,0,0,1-.44,0,.62.62,0,0,1-.19-.12L2.48,7.33a.57.57,0,0,1-.17-.41.58.58,0,0,1,.17-.41.58.58,0,0,1,.4-.16.6.6,0,0,1,.41.16L5.77,9l6.51-6.51a.58.58,0,0,1,.41-.17.57.57,0,0,1,.41.17.54.54,0,0,1,.17.4A.57.57,0,0,1,13.1,3.29Z"/></g></g></svg>