<svg width="64" height="64" viewBox="0 0 64 64" fill="none" xmlns="http://www.w3.org/2000/svg">
<g clip-path="url(#clip0_56_1254)">
<path d="M54 46.9C54 59 44.2 59 32 59C19.8 59 10 59 10 46.9C10 34.8 19.9 15 32 15C44.1 15 54 34.7 54 46.9Z" fill="#DBB471"/>
<path opacity="0.5" d="M53.9999 46.9C53.9999 42.8 52.8999 37.8 50.8999 33C51.2999 36.1 50.4999 41.6 40.9999 43.7C27.4999 46.6 34.4999 50.4 29.1999 50.9C24.6999 51.3 12.6999 49.5 10.2999 42.7C10.0999 44.2 9.8999 45.6 9.8999 47C9.9999 59 19.8999 59 31.9999 59C44.0999 59 53.9999 59 53.9999 46.9Z" fill="#89664C"/>
<path d="M37.9 41.0999C37.5 39.0999 35.8 38.5 34 38.4V35.5999C34.5 35.7999 35.1 36.1 35.5 36.4C36.3 36.9 37.1 35.5999 36.3 35.0999C35.6 34.6999 34.8 34.3 34 34V30.7C34 29.7 32.5 29.7 32.5 30.7V33.5999C31.7 33.4999 30.9 33.4999 30.1 33.5999C30 32.8999 29.8 32.2 29.6 31.5C29.4 30.5 27.9 30.9 28.2 31.9C28.4 32.6 28.5 33.3 28.7 34C28.6 34 28.6 33.9999 28.5 34.0999C26.5 34.8999 25.2 36.8999 26.7 38.7999C27.4 39.6999 28.3 40 29.3 40.2C29.4 41.5 29.4 42.7999 29.4 44.0999C28.7 43.6999 28.1 43.0999 27.6 42.5999C26.9 41.8999 25.9 43 26.5 43.7C27.4 44.7 28.4 45.4 29.4 45.9C29.4 47 29.5 48.1 29.6 49.2C29.7 50.2 31.2 50.2 31.1 49.2C31 48.2 30.9 47.2999 30.9 46.2999C31.5 46.3999 32.1 46.4 32.7 46.4C32.8 47.4 32.9 48.4 33 49.5C33.1 50.5 34.6 50.5 34.5 49.5C34.4 48.4 34.3 47.2999 34.2 46.0999C36.4 45.2999 38.4 43.5999 37.9 41.0999ZM32.5 35.0999V38.4C32 38.4 31.6 38.5 31.2 38.5H30.7L30.4 34.9C31.1 34.9 31.8 34.9999 32.5 35.0999ZM28.9 38.2999C28.5 38.1999 28.1 37.8999 27.7 37.5999C26.8 36.6999 28.1 35.9 28.9 35.5C29 36.5 29.1 37.4 29.2 38.4C29.1 38.4 29 38.3999 28.9 38.2999ZM32.2 44.7C31.7 44.8 31.3 44.6999 30.9 44.5999C30.8 43.0999 30.8 41.6 30.8 40C31.4 40 32 39.9 32.6 39.9C32.6 41.5 32.7 42.9999 32.7 44.5999C32.5 44.6999 32.4 44.7 32.2 44.7ZM35.5 43.5999C35.1 43.8999 34.6 44.0999 34.2 44.2999C34.1 42.7999 34.1 41.4 34.1 39.9H34.6C36.5 40.3 37 42.3999 35.5 43.5999Z" fill="#89664C"/>
<path d="M34.0002 55H31.7002V59L41.0002 64L62.0002 57.5V54L54.3002 49.5L34.0002 55Z" fill="#699635"/>
<path d="M32 52.7C32 52.7 34.4 56.6 41.2 60C41.2 60 51.8 59.5 62 52.7C62 52.7 56.1 49.8 54.4 46C54.4 46 50.4 51.6 32 52.7Z" fill="#83BF4F"/>
<path d="M27.5001 54.9001L29.7001 54.8L30.0001 58.5L21.3001 64L0.400098 59.5L0.100098 56.2001L7.2001 51.3L27.5001 54.9001Z" fill="#699635"/>
<path d="M29.2 52.6C29.2 52.6 27.1 56.5 20.8 60.2C20.8 60.2 10.5 60.5 0 55C0 55 5.6 51.8 6.9 48C6.9 48 11.3 53 29.2 52.6Z" fill="#83BF4F"/>
<path d="M24.1998 53.6999C24.1998 53.6999 23.8998 54.4999 25.2998 54.5999L21.5998 57.6999C21.5998 57.6999 19.3998 57.4999 18.8998 58.9999C18.8998 58.9999 9.8998 57.9999 4.0998 55.4C4.0998 55.4 5.2998 54.4999 3.7998 53.8999C3.7998 53.8999 5.4998 52.6999 5.8998 51.5999C5.8998 51.5999 7.4998 51.7999 7.9998 50.5999C8.1998 50.4999 14.1998 54.0999 24.1998 53.6999Z" stroke="#699635" stroke-miterlimit="10"/>
<path d="M8.7999 55.1C9.84924 55.1 10.6999 54.518 10.6999 53.8C10.6999 53.082 9.84924 52.5 8.7999 52.5C7.75056 52.5 6.8999 53.082 6.8999 53.8C6.8999 54.518 7.75056 55.1 8.7999 55.1Z" fill="#699635"/>
<path d="M18.9998 52.2C18.9998 52.2 16.6998 55.2 11.6998 59.3L11.9998 62L8.4998 61.2L8.2998 58.3C8.2998 58.3 13.3998 53.6 14.4998 51.3C14.3998 51.3 16.1998 51.9 18.9998 52.2ZM42.0998 51.5C42.0998 51.5 42.9998 53.9 49.7998 58.3V61.2L53.6998 60V57C53.6998 57 48.9998 53.7 46.1998 50.4L42.0998 51.5Z" fill="#F9F3D9"/>
<path d="M36.4 48.3L34.2 48.2L34 52.3L42.9 58L63.8 52.3L63.9 48.7L56.6 43.6L36.4 48.3Z" fill="#699635"/>
<path d="M34.6001 45.8C34.6001 45.8 36.8001 50 43.3001 53.8C43.3001 53.8 53.7001 53.8 64.0001 47.4C64.0001 47.4 58.3001 44.1 56.9001 40C56.9001 40 52.6001 45.6 34.6001 45.8Z" fill="#83BF4F"/>
<path d="M39.1 46.9C39.1 46.9 39.6 47.7 38 48L42.2 51.3C42.2 51.3 44.6 50.7 45.4 52.1C45.4 52.1 55.4 50.3 60 47.9C60 47.9 58.5 47.2 60 46.3C60 46.3 58.2 44.8 57.5 43.8C57.5 43.8 55.8 44.3 54.9 43.1C54.9 43.2 51.3 46.4 39.1 46.9Z" stroke="#699635" stroke-miterlimit="10"/>
<path d="M46.7999 49.4C46.3999 49.9 45.0999 50.1 43.9999 49.8C42.8999 49.5 42.3999 48.8 42.7999 48.3C43.1999 47.8 44.4999 47.6 45.5999 47.9C46.6999 48.2 47.1999 48.8 46.7999 49.4Z" fill="#699635"/>
<path d="M44.7998 45C44.7998 45 47.1998 48.2 52.2998 52.5L52.1998 55.5L55.6998 54.5L55.7998 51.3C55.7998 51.3 50.5998 46.3 49.2998 43.9C49.3998 43.9 47.6998 44.6 44.7998 45Z" fill="#F9F3D9"/>
<path d="M46 2C46 8.1 38.1 18 32 18C25.9 18 18 9.1 18 3C18 -3.1 18.9 3 25 3C25.9 3 30.1 0 32 0C33.3 0 37 3 39 3C44.3 3 46 -2.6 46 2Z" fill="#DBB471"/>
<path d="M30.1998 13.3C29.5998 13.7 26.6998 13.4 25.7998 14.1C24.5998 15 26.2998 17.1 25.0998 18.4C22.6998 20.8 20.7998 23.5 21.3998 25C22.3998 27.6 24.2998 20.2 25.9998 23C27.6998 25.8 27.3998 21.1 29.9998 23.5C32.5998 25.9 30.3998 19.2 32.8998 22.1C35.3998 25 35.4998 28.3 37.2998 28.3C39.3998 28.3 35.0998 20.4 37.8998 22.3C40.6998 24.2 43.7998 23.5 40.9998 20.6C40.0998 19.7 38.8998 18.1 37.4998 16.7C36.9998 16.2 37.3998 13.6 36.8998 13.2C36.2998 12.7 34.7998 14.3 34.1998 14C32.9998 13.4 33.3998 14.5 31.5998 14.8C30.3998 15.2 31.3998 12.5 30.1998 13.3Z" fill="#89664C"/>
<path d="M18.7002 19.2C22.6002 15.5 29.7002 17.6 33.9002 19.4C38.0002 21.2 40.5002 15.5 37.9002 12.6C36.4002 10.9 34.0002 12.9 33.1002 14.1C32.1002 15.3 31.3002 16.6 30.2002 17.8C28.6002 19.6 24.7002 18.1 25.9002 15.6C27.2002 13 32.7002 16 34.5002 16.5C38.0002 17.5 41.7002 17.9 45.2002 16.6C46.4002 16.2 45.9002 14.2 44.7002 14.7C40.8002 16.1 36.9002 15.2 33.2002 14C31.3002 13.4 28.3002 11.8 26.3002 12.7C20.6002 15.4 25.9002 23.1 30.7002 20.1C31.8002 19.4 32.5002 18.3 33.3002 17.3C33.8002 16.7 36.3002 12.9 36.9002 14.8C37.2002 15.8 36.9002 17.6 35.8002 17.9C35.1002 18.2 33.7002 17.2 33.0002 17C31.7002 16.5 30.4002 16.1 29.0002 15.8C25.3002 15 20.3002 15.2 17.4002 17.9C16.4002 18.7 17.8002 20.1 18.7002 19.2Z" fill="#E8E8E8"/>
<path d="M44.8 0.5C43.8 1.3 42 3 39 3C37 3 33.3 0 32 0C30.1 0 25.9 3 25 3C21.7 3 19.9 1.3 19 0.6C19 0.6 20.1 5.1 23.5 7.4C26 9 25.7 7.1 27 5.3C28.3 3.5 29.2 2.6 31.5 7.1C32.7 9.6 35 0.3 36.8 3.3C40.1 8.8 41.3 5.8 44.8 0.5Z" fill="#89664C"/>
<path d="M52.4 52.4L52.2999 55.4L55.7999 54.4L55.9 51.2C55.9 51.3 53.8 52.1 52.4 52.4ZM49.7999 58.4V61.2999L53.7 60.0999V57.0999C53.6 56.9999 52.5999 57.6 49.7999 58.4ZM11.7 59.2L12 62L8.49995 61.2L8.29995 58.2999C8.19995 58.2999 9.59995 58.8 11.7 59.2Z" fill="#DBB471"/>
</g>
<defs>
<clipPath id="clip0_56_1254">
<rect width="64" height="64" fill="white"/>
</clipPath>
</defs>
</svg>
