<svg width="50" height="50" viewBox="0 0 50 50" fill="none" xmlns="http://www.w3.org/2000/svg">
<path d="M12.5 14.5833H22.9167C23.4692 14.5833 23.9991 14.8028 24.3898 15.1935C24.7805 15.5842 25 16.1141 25 16.6666C25 17.2192 24.7805 17.7491 24.3898 18.1398C23.9991 18.5305 23.4692 18.75 22.9167 18.75H12.5C11.9475 18.75 11.4176 18.5305 11.0269 18.1398C10.6362 17.7491 10.4167 17.2192 10.4167 16.6666C10.4167 16.1141 10.6362 15.5842 11.0269 15.1935C11.4176 14.8028 11.9475 14.5833 12.5 14.5833ZM27.0833 31.25H37.5C38.0525 31.25 38.5824 31.4695 38.9731 31.8602C39.3638 32.2509 39.5833 32.7808 39.5833 33.3333C39.5833 33.8858 39.3638 34.4158 38.9731 34.8065C38.5824 35.1972 38.0525 35.4166 37.5 35.4166H27.0833C26.5308 35.4166 26.0009 35.1972 25.6102 34.8065C25.2195 34.4158 25 33.8858 25 33.3333C25 32.7808 25.2195 32.2509 25.6102 31.8602C26.0009 31.4695 26.5308 31.25 27.0833 31.25ZM12.5 22.9166H37.5C38.0525 22.9166 38.5824 23.1361 38.9731 23.5268C39.3638 23.9175 39.5833 24.4474 39.5833 25C39.5833 25.5525 39.3638 26.0824 38.9731 26.4731C38.5824 26.8638 38.0525 27.0833 37.5 27.0833H12.5C11.9475 27.0833 11.4176 26.8638 11.0269 26.4731C10.6362 26.0824 10.4167 25.5525 10.4167 25C10.4167 24.4474 10.6362 23.9175 11.0269 23.5268C11.4176 23.1361 11.9475 22.9166 12.5 22.9166Z" fill="white"/>
</svg>
