<svg xmlns="http://www.w3.org/2000/svg" viewBox="0 0 150 150"><defs><style>.cls-1{fill:#7d6cf9;}.cls-2,.cls-3{fill:none;stroke:#171717;stroke-linecap:round;stroke-linejoin:round;}.cls-2{stroke-width:5px;}</style></defs><g id="Layer_2" data-name="Layer 2"><g id="Layer_1-2" data-name="Layer 1"><path class="cls-1" d="M0,0V150H150V0ZM45,70A20,20,0,1,1,65,50,20,20,0,0,1,45,70ZM83.84,84.82a2.15,2.15,0,0,1,.54.9v0a2.15,2.15,0,0,1-.17,2.91l-.78.76a2.18,2.18,0,0,1-3.08-.06l-5.62-5.81-5.4,5.21a2.17,2.17,0,0,1-3.07-.06l-.76-.78a2.06,2.06,0,0,1-.57-1.15,2.18,2.18,0,0,1,0-.57,2.15,2.15,0,0,1,.63-1.39l5.31-5.3-5.1-5.27a2.18,2.18,0,0,1,.06-3.08l.78-.75a2.16,2.16,0,0,1,3.07,0l5,5.21,5.72-5.72a2.18,2.18,0,0,1,3.08,0l.77.77a2.17,2.17,0,0,1,0,3.07L78.54,79.5ZM105,70a20,20,0,1,1,20-20A20,20,0,0,1,105,70Z"/><path class="cls-2" d="M25,90c0,21.94,22.57,40,50,40s50-18.06,50-40"/><path class="cls-3" d="M85,50a10,10,0,0,0-20,0"/></g></g></svg>