<svg width="50" height="50" viewBox="0 0 50 50" fill="none" xmlns="http://www.w3.org/2000/svg">
<path d="M38.75 13.7917C44.9583 13.7917 50 18.75 50 25C50 31.1667 44.9583 36.1875 38.75 36.1875C35.7292 36.1875 32.9167 35.0209 30.7917 32.9167L25 27.7917L19.1042 33.0209C17.0833 35.0417 14.25 36.2084 11.25 36.2084C5.04167 36.2084 0 31.1667 0 25C0 18.8334 5.04167 13.7917 11.25 13.7917C14.25 13.7917 17.0833 14.9584 19.2083 17.0834L25 22.2084L30.8958 16.9792C32.9167 14.9584 35.75 13.7917 38.75 13.7917ZM16.25 29.9792L21.875 25L16.3333 20.1042C14.9167 18.6875 13.1458 17.9584 11.25 17.9584C7.35417 17.9584 4.16667 21.1042 4.16667 25C4.16667 28.8959 7.35417 32.0417 11.25 32.0417C13.1458 32.0417 14.9167 31.3125 16.25 29.9792ZM33.75 20.0209L28.125 25L33.6667 29.8959C35.0833 31.3125 36.875 32.0417 38.75 32.0417C42.6458 32.0417 45.8333 28.8959 45.8333 25C45.8333 21.1042 42.6458 17.9584 38.75 17.9584C36.8542 17.9584 35.0833 18.6875 33.75 20.0209Z" fill="#5F85DB"/>
</svg>
