<svg width="28" height="28" viewBox="0 0 28 28" fill="none" xmlns="http://www.w3.org/2000/svg">
<path d="M23.625 4.375H4.375C3.91087 4.375 3.46575 4.55937 3.13756 4.88756C2.80937 5.21575 2.625 5.66087 2.625 6.125V21.875C2.625 22.3391 2.80937 22.7842 3.13756 23.1124C3.46575 23.4406 3.91087 23.625 4.375 23.625H23.625C24.0891 23.625 24.5342 23.4406 24.8624 23.1124C25.1906 22.7842 25.375 22.3391 25.375 21.875V6.125C25.375 5.66087 25.1906 5.21575 24.8624 4.88756C24.5342 4.55937 24.0891 4.375 23.625 4.375ZM22.4941 9.36906L11.9941 19.8691C11.9128 19.9504 11.8163 20.015 11.7101 20.059C11.6038 20.103 11.49 20.1257 11.375 20.1257C11.26 20.1257 11.1462 20.103 11.0399 20.059C10.9337 20.015 10.8372 19.9504 10.7559 19.8691L6.38094 15.4941C6.21675 15.3299 6.12451 15.1072 6.12451 14.875C6.12451 14.6428 6.21675 14.4201 6.38094 14.2559C6.54512 14.0918 6.76781 13.9995 7 13.9995C7.23219 13.9995 7.45488 14.0918 7.61906 14.2559L11.375 18.013L21.2559 8.13094C21.4201 7.96675 21.6428 7.87451 21.875 7.87451C22.1072 7.87451 22.3299 7.96675 22.4941 8.13094C22.6582 8.29512 22.7505 8.51781 22.7505 8.75C22.7505 8.98219 22.6582 9.20488 22.4941 9.36906Z" fill="#DA0037"/>
</svg>
