<svg width="24" height="24" viewBox="0 0 24 24" fill="none" xmlns="http://www.w3.org/2000/svg">
<path d="M6.26 21.388H6C5.057 21.388 4.586 21.388 4.293 21.095C4 20.804 4 20.332 4 19.389V18.277C4 17.759 4 17.5 4.133 17.268C4.266 17.037 4.467 16.92 4.869 16.686C7.515 15.147 11.272 14.281 13.779 15.776C13.947 15.877 14.099 15.999 14.229 16.144C14.3633 16.2912 14.4668 16.4638 14.5333 16.6516C14.5998 16.8394 14.628 17.0386 14.6163 17.2376C14.6045 17.4365 14.553 17.631 14.4649 17.8097C14.3767 17.9884 14.2537 18.1476 14.103 18.278C13.9828 18.3922 13.8361 18.4747 13.676 18.518C13.796 18.504 13.911 18.488 14.021 18.471C14.932 18.326 15.697 17.838 16.397 17.309L18.205 15.944C18.5275 15.7093 18.9161 15.583 19.315 15.583C19.7139 15.583 20.1025 15.7093 20.425 15.944C20.998 16.377 21.174 17.09 20.811 17.672C20.388 18.35 19.792 19.217 19.22 19.747C18.647 20.277 17.794 20.751 17.098 21.087C16.326 21.46 15.474 21.674 14.607 21.815C12.849 22.099 11.017 22.055 9.277 21.697C8.28429 21.4929 7.27348 21.3887 6.26 21.388Z" fill="white"/>
<path d="M6.58578 2.58603C6.21878 2.95303 6.08179 3.45903 6.03079 4.25003C6.61698 4.242 7.17689 4.0055 7.59133 3.59087C8.00578 3.17624 8.24202 2.61622 8.24978 2.03003C7.45978 2.08203 6.95278 2.21903 6.58578 2.58603ZM17.4138 2.58603C17.0468 2.21903 16.5408 2.08203 15.7498 2.03103C15.7578 2.61722 15.9943 3.17713 16.4089 3.59158C16.8236 4.00602 17.3836 4.24227 17.9698 4.25003C17.9178 3.46003 17.7808 2.95303 17.4138 2.58603ZM17.4138 9.41403C17.0468 9.78103 16.5408 9.91803 15.7498 9.96903C15.7578 9.38284 15.9943 8.82293 16.4089 8.40848C16.8236 7.99404 17.3836 7.75779 17.9698 7.75003C17.9178 8.54003 17.7808 9.04703 17.4138 9.41403ZM6.58578 9.41403C6.95278 9.78103 7.45878 9.91803 8.24978 9.96903C8.24176 9.38284 8.00526 8.82293 7.59063 8.40848C7.176 7.99404 6.61598 7.75779 6.02979 7.75003C6.08179 8.54003 6.21878 9.04703 6.58578 9.41403Z" fill="#83BF4F"/>
<path fill-rule="evenodd" clip-rule="evenodd" d="M6 5.75C6.99456 5.75 7.94839 5.35491 8.65165 4.65165C9.35491 3.94839 9.75 2.99456 9.75 2H14.25C14.25 2.99456 14.6451 3.94839 15.3483 4.65165C16.0516 5.35491 17.0054 5.75 18 5.75V6.25C17.0054 6.25 16.0516 6.64509 15.3483 7.34835C14.6451 8.05161 14.25 9.00544 14.25 10H9.75C9.75 9.00544 9.35491 8.05161 8.65165 7.34835C7.94839 6.64509 6.99456 6.25 6 6.25V5.75ZM12 7C12.2652 7 12.5196 6.89464 12.7071 6.70711C12.8946 6.51957 13 6.26522 13 6C13 5.73478 12.8946 5.48043 12.7071 5.29289C12.5196 5.10536 12.2652 5 12 5C11.7348 5 11.4804 5.10536 11.2929 5.29289C11.1054 5.48043 11 5.73478 11 6C11 6.26522 11.1054 6.51957 11.2929 6.70711C11.4804 6.89464 11.7348 7 12 7Z" fill="#83BF4F"/>
</svg>
