<svg width="24" height="24" viewBox="0 0 24 24" fill="none" xmlns="http://www.w3.org/2000/svg">
<path d="M15.5362 17.586C15.1414 17.2098 14.617 17 14.0717 17C13.5264 17 13.002 17.2098 12.6072 17.586C12.4155 17.7683 12.2629 17.9876 12.1586 18.2307C12.0543 18.4737 12.0005 18.7355 12.0005 19C12.0005 19.2645 12.0543 19.5263 12.1586 19.7693C12.2629 20.0124 12.4155 20.2317 12.6072 20.414C13.4162 21.195 14.7272 21.195 15.5362 20.414M15.5362 20.414C14.7312 21.192 16.3452 19.633 15.5362 20.414ZM15.5362 20.414L16.9962 19.004L18.4562 17.585" stroke="white" stroke-width="2" stroke-linecap="round" stroke-linejoin="round"/>
<path d="M15.54 17.582L17 19.002L18.46 20.412M18.46 20.412C17.655 19.633 19.269 21.192 18.46 20.412ZM18.46 20.412C19.265 21.191 20.58 21.193 21.389 20.412C21.5807 20.2298 21.7334 20.0104 21.8377 19.7673C21.942 19.5243 21.9958 19.2625 21.9958 18.998C21.9958 18.7335 21.942 18.4717 21.8377 18.2287C21.7334 17.9856 21.5807 17.7663 21.389 17.584C20.9942 17.2078 20.4698 16.998 19.9245 16.998C19.3792 16.998 18.8548 17.2078 18.46 17.584M14 3V7C14 7.26522 14.1054 7.51957 14.2929 7.70711C14.4804 7.89464 14.7348 8 15 8H19" stroke="white" stroke-width="2" stroke-linecap="round" stroke-linejoin="round"/>
<path d="M9.5 21H7C6.46957 21 5.96086 20.7893 5.58579 20.4142C5.21071 20.0391 5 19.5304 5 19V5C5 4.46957 5.21071 3.96086 5.58579 3.58579C5.96086 3.21071 6.46957 3 7 3H14L19 8V14" stroke="white" stroke-width="2" stroke-linecap="round" stroke-linejoin="round"/>
</svg>
