<svg width="50" height="50" viewBox="0 0 50 50" fill="none" xmlns="http://www.w3.org/2000/svg">
<path d="M43.4792 21.8333C42.8608 18.2246 41.1993 14.8759 38.6999 12.2004C36.2004 9.52492 32.9724 7.63977 29.414 6.77756C25.8557 5.91535 22.1227 6.11381 18.6758 7.34846C15.229 8.5831 12.219 10.7999 10.0173 13.7253C7.81563 16.6507 6.51863 20.1567 6.28633 23.8106C6.05404 27.4646 6.89662 31.1066 8.7101 34.2873C10.5236 37.4679 13.2286 40.048 16.4914 41.7092C19.7542 43.3704 23.4319 44.04 27.0708 43.6354M18.75 20.8333H18.7708M31.25 20.8333H31.2708" stroke="white" stroke-width="2" stroke-linecap="round" stroke-linejoin="round"/>
<path d="M19.7917 31.25C21.1625 32.5833 23.0417 33.3333 25 33.3333C25.7437 33.3333 26.4771 33.225 27.1729 33.0187M43.75 31.25H38.5417C37.7129 31.25 36.918 31.5792 36.332 32.1653C35.7459 32.7513 35.4167 33.5462 35.4167 34.375C35.4167 35.2038 35.7459 35.9986 36.332 36.5847C36.918 37.1707 37.7129 37.5 38.5417 37.5H40.625C41.4538 37.5 42.2487 37.8292 42.8347 38.4153C43.4208 39.0013 43.75 39.7962 43.75 40.625C43.75 41.4538 43.4208 42.2486 42.8347 42.8347C42.2487 43.4207 41.4538 43.75 40.625 43.75H35.4167M39.5833 43.75V45.8333M39.5833 29.1666V31.25" stroke="white" stroke-width="2" stroke-linecap="round" stroke-linejoin="round"/>
</svg>
